<?xml version="1.0" encoding="UTF-8"?>
<svg width="720" height="560" viewBox="0 0 720 560" fill="none" xmlns="http://www.w3.org/2000/svg">
  <defs>
    <linearGradient id="g1" x1="0" y1="0" x2="1" y2="1">
      <stop offset="0%" stop-color="#5b8cff"/>
      <stop offset="100%" stop-color="#9ec5ff"/>
    </linearGradient>
    <linearGradient id="g2" x1="0" y1="0" x2="0" y2="1">
      <stop offset="0%" stop-color="#ffffff" stop-opacity=".9"/>
      <stop offset="100%" stop-color="#ffffff" stop-opacity=".75"/>
    </linearGradient>
    <filter id="shadow" x="-20%" y="-20%" width="140%" height="140%">
      <feDropShadow dx="0" dy="14" stdDeviation="14" flood-opacity="0.18"/>
    </filter>
  </defs>
  <!-- 背景圆形点缀 -->
  <circle cx="100" cy="120" r="32" fill="url(#g1)" opacity=".25"/>
  <circle cx="650" cy="80" r="18" fill="#ffd166" opacity=".4"/>
  <circle cx="620" cy="470" r="26" fill="#22d3ee" opacity=".3"/>

  <!-- 平板屏幕 -->
  <rect x="120" y="120" rx="20" ry="20" width="420" height="300" fill="#ffffff" filter="url(#shadow)"/>
  <rect x="140" y="160" rx="12" ry="12" width="380" height="220" fill="url(#g2)"/>
  <rect x="168" y="200" width="160" height="14" rx="7" fill="#9aa5b1" opacity=".5"/>
  <rect x="168" y="230" width="220" height="14" rx="7" fill="#9aa5b1" opacity=".35"/>
  <rect x="168" y="270" width="280" height="10" rx="5" fill="#9aa5b1" opacity=".25"/>
  <rect x="168" y="290" width="260" height="10" rx="5" fill="#9aa5b1" opacity=".25"/>

  <!-- 勾选卡片 -->
  <g transform="translate(380,330)">
    <rect x="0" y="0" width="120" height="44" rx="12" fill="#e7f5ff"/>
    <circle cx="26" cy="22" r="10" fill="#4ade80"/>
    <path d="M22 22 l4 4 l8 -8" stroke="#ffffff" stroke-width="3" fill="none" stroke-linecap="round" stroke-linejoin="round"/>
    <rect x="44" y="16" width="64" height="12" rx="6" fill="#60a5fa" opacity=".8"/>
  </g>

  <!-- 装饰人物（扁平化简笔） -->
  <g transform="translate(560,220)">
    <circle cx="24" cy="18" r="12" fill="#ffd166"/>
    <rect x="8" y="30" width="32" height="44" rx="10" fill="url(#g1)"/>
    <rect x="0" y="72" width="48" height="10" rx="5" fill="#9ec5ff"/>
  </g>
</svg>
