<?xml version="1.0" encoding="utf-8"?>
<!-- Generator: Adobe Illustrator 26.0.1, SVG Export Plug-In . SVG Version: 6.00 Build 0)  -->
<svg version="1.1" id="Layer_1" xmlns="http://www.w3.org/2000/svg" xmlns:xlink="http://www.w3.org/1999/xlink" x="0px" y="0px"
	 viewBox="0 0 165 45" style="enable-background:new 0 0 165 45;" xml:space="preserve">
<style type="text/css">
	.st0{fill:#FFC70A;}
</style>
<g>
	<polygon class="st0" points="0,0 0,45 165,45 165,0 	"/>
	<g>
		<path d="M99.4,31.2c-2.2,0-4.4-0.4-5.7-0.9V12.6h4.6v5.9c0.6-0.2,1.6-0.4,2.4-0.4c3.9,0,6.6,2.2,6.6,6
			C107.4,29,104.5,31.2,99.4,31.2z M99.8,21.1c-0.5,0-1.1,0.1-1.5,0.3v6.7c0.3,0.1,0.8,0.2,1.3,0.2c1.9,0,3-1.3,3-3.7
			C102.7,22.4,101.7,21.1,99.8,21.1z"/>
		<path d="M115.1,31.2c-4.8,0-7.1-1.5-7.1-4.2c0-3.3,4.1-4.1,8.6-4.3v-0.5c0-1-0.8-1.5-2.4-1.5c-1.5,0-3.2,0.4-4.3,0.8l-1.1-2.6
			c1.3-0.4,3.2-1,6-1c4.1,0,6.2,1.4,6.2,4.7v7.6C119.8,30.8,117.5,31.2,115.1,31.2z M116.6,25.2c-2.5,0.1-4.4,0.3-4.4,1.8
			c0,1,1,1.6,2.7,1.6c0.6,0,1.4-0.1,1.7-0.2V25.2z"/>
		<path d="M131.2,30.9v-8.2c0-1-0.6-1.7-2.2-1.7c-0.9,0-1.6,0.3-1.6,0.3v9.6h-4.6V19c1.7-0.5,3.7-1,6.3-1c4.7,0,6.8,1.6,6.8,4.3v8.6
			H131.2z"/>
		<path d="M146.8,30.9l-4.6-6.3h-0.1v6.3h-4.6V12.6h4.6v11.1h0.1l4.2-5.4h5.2l-4.7,5.9l5.1,6.7H146.8z"/>
		<path d="M85.1,36h-4.8l2.3-5l-5.7-12.6h5l3.1,8.9l3-8.9h5L85.1,36z"/>
		<polygon points="61.1,14.1 55.7,14.1 52.1,24.5 48.6,14.1 43.2,14.1 40.8,30.9 45.2,30.9 46.6,19.3 50.7,30.9 53.6,30.9 
			57.7,19.3 59.1,30.9 63.5,30.9 		"/>
		<path d="M71.2,31.2c-4.8,0-7.1-1.5-7.1-4.2c0-3.3,4.1-4.1,8.6-4.3v-0.5c0-1-0.8-1.5-2.4-1.5c-1.5,0-3.2,0.4-4.3,0.8L64.9,19
			c1.3-0.4,3.6-1,6-1c4.1,0,6.2,1.4,6.2,4.7v7.6C75.9,30.8,73.6,31.2,71.2,31.2z M72.7,25.2c-2.5,0.1-4.4,0.3-4.4,1.8
			c0,1,1,1.6,2.7,1.6c0.6,0,1.4-0.1,1.7-0.2V25.2z"/>
	</g>
	<g>
		<path d="M22.5,8.4c-7.8,0-14.1,6.3-14.1,14.1c0,7.8,6.3,14.1,14.1,14.1c7.8,0,14.1-6.3,14.1-14.1C36.6,14.7,30.3,8.4,22.5,8.4
			 M22.5,35.4c-7.1,0-12.9-5.8-12.9-12.9c0-7.1,5.8-12.9,12.9-12.9c7.1,0,12.9,5.8,12.9,12.9C35.4,29.6,29.6,35.4,22.5,35.4"/>
		<path d="M16.9,21.8c-1-0.3-1.9,0.9-2.4,1.8C14.7,22.4,16.2,20.5,16.9,21.8"/>
		<path d="M14.7,21.9c0.3-1.2,1.1-1.6,1.6-1.2C15.7,20.8,15.2,21.1,14.7,21.9"/>
		<path d="M17.3,23.7c0.5-0.4,0.5-1.1-0.3-1.3c-0.6-0.2-1.9,0.9-2,2.1C15.4,23.9,16.9,22.7,17.3,23.7"/>
		<path d="M25.3,26.8c0.1-1.5-1.4-2.2-1.7-3.8c-0.3-1.6,2.3-4.1,0.7-6.6c3.1,2.5,0.7,4,2.2,6c-0.6-0.2-1.2-0.7-1.4-1
			C24.3,22.6,27.3,24.1,25.3,26.8"/>
		<path d="M20.4,14.5c0.4,0,1,0.3,0.7,0.5c-0.9,0.8-2,0.5-2.9,1.3C18.5,15.4,20.2,15.2,20.4,14.5"/>
		<path d="M23.1,15.7c0.4-0.4,0-1-1.4-1.1c1.5,0.7-0.9,0.9-1,2.2c-0.8,0.3-1.4-0.2-1.8,0.2c-0.4,0.3-0.8,0.1-0.7-0.3
			c-0.5,0.2-0.4,0.9,0.1,1.1c0.1,0,0.2,0.1,0.1,0.2c-0.5,0.5-0.7,0.9-0.2,1.3c0.3-0.5,0.4-0.7,0.7-1c0.3,0.2,0.8,0.1,1.5-0.7
			c0,0,0.1,0,0.1,0c-0.6,1.9-2,2.2-2.4,2.1c0.3,0.4,2.1,0.7,2.3-0.1c0.5-1.8,2.3-2.6,0.8-2.6C21.5,16.5,22.8,16,23.1,15.7
			 M19.3,17.9c-0.1,0-0.2-0.2-0.2-0.4c0.1,0.4,0.5,0.2,0.3-0.3c0.1,0,0.3,0,0.7,0C19.7,17.4,19.5,17.9,19.3,17.9"/>
		<path d="M23.9,14.7c0.7,0.5,1.1,0.8,1.6,1.4c0.1-0.8-0.4-2.3-1-2.7C24.2,13.2,23.8,14.3,23.9,14.7"/>
		<path d="M12.2,20.9c0.5-1.2,1.6-2.7,3.5-3.8c0.4-1.1,0.3-1.9,4.8-3.6c0.1-0.7,0.1-1.5,0.3-1.5c0.2,0,0.9,0.3,1.3,1
			c0.2,0,0.4,0,0.5-0.1c0.1-0.4,0.4-1.5,0.7-2c0.3-0.5,1-0.6,1.8,0.1c0.8,0.7,1.4,1,2.6,2.4c1,0.4,2.5,1,3.8,2.6
			c-0.6-0.4-1.2-0.5-1.8-0.6c1.1,0.9,1.8,2.5,1.2,4.8c-0.2-2.1-1.8-3-2.7-3.7c0.5,1.8-1.7,1.2-2.4-0.2c0.2,0.1,0.5,0.1,0.6,0
			c-0.1-2.7-1.4-4.3-1.9-4.8c-0.7-0.6-1.1,0.9-1.4,2c-0.1,0.4-0.4,0.6-0.8,0.6c0.1-0.1,0.2-0.5,0.2-0.6c-1.1,0.1-2.4,0.8-3.2,1.1
			c-2,0.9-2.5,1.4-2.9,2.9C14.8,18.2,13,20.1,12.2,20.9"/>
		<path d="M22.2,20.5c0.2,0.2,1.5,2.2,0,4.8c0.4-1.9-0.7-5.4-2-3.6c0.9,0.4,1.2,1.1,0.9,1.8c-0.4-0.7-1.3-1.4-2.2-1.1
			c-0.4,0.2-1,0.2-1.5-0.5c-0.6-0.8,0.4-1.9-1.3-1.8c2-1,1.4,1,2.4,1.2c1.1,0.3,1.3-0.4,1.6-0.9c0.3-0.4,0.9-0.7,1.5-0.3
			c0.3-0.9-0.1-2.3,0.7-3c0.3-0.3,1.3-0.2,1.8,0.2C23.4,17.3,22.6,18.2,22.2,20.5"/>
		<path d="M32.4,17.1c1,3.5,0.7,7-0.3,9c0.1-1.3-1-3.1-0.5-5.3c-2.1,2.1,1.2,7.1-3.6,10.4c0.7-1.2,1-4,0.8-5.1
			c0.3,0.1,0.5,0.4,0.7,0.7c0.4-1.3,0.5-3.2-0.3-5.1c0.3,0,0.8,0.3,1.1,0.5c0.1-2.9-2-3.2-2.4-4c0,0.9,1,1.6,1.2,2.7
			c-0.7-0.3-1.2-0.4-1.6-0.3c0.5,0.4,1.7,2.7,1.4,4.6c-0.5-0.4-1-0.6-1.5-0.7c0.6,1,0.9,3.5,0.1,4.7c0-0.3-0.1-1-0.4-1.3
			c-0.4,1.4-1.5,2-2.2,2.2c0.9-1,0.8-2.7-0.6-3.2c-1.2-0.4-2.8,0.4-3.5,3.4c-0.9,0.3-3.6-0.3-2-2.1c1,0.3,3.5-1.3,3.3-2.5
			c-0.2-1.6-1.7-2.2-2.9-2.2c-1.5,0-2.4,1.4-3.6,2c-1-0.2-1.3-0.3-1.8-1.6c-0.1-0.8,0.8-1.4,0.8-2.2c-0.7,0.2-0.9-0.9-2.3,0.2
			c-0.1-0.2,0.1-0.7,0.1-0.7c-0.5,0.5-0.6,1-0.6,1.1c0.2,0.5,0.6,0.9,1.3,1.4c0.8,2.2,1.7,2.4,2.5,2.5c0.1,0.2,0.8,1,1.6,1.1
			c-0.1-0.4-0.2-1.6-0.1-1.8c1.8-1.8,3.1-0.7,3.2-0.2c-1.6,0.3-0.5,3.7-3.1,2.2c-0.1,0.3,0,1.2,0.4,1.7c0.3,2.3,3.2,1.7,4.1,2.1
			c-0.1-2.2,1.1-3.9,2.2-3.7c1.1,0.1,1.3,1.9-0.5,3.5c0.4,0.2,2.4-0.1,3.4-0.8c0.1,0.6-0.6,2.2-1.5,3.4C32.5,31.8,36,23.5,32.4,17.1
			z M13.1,23.3c-0.4-0.3-0.9-0.8-1-1.1c0.1-0.1,0.4-0.4,0.8-0.5c0.3-0.1,0.5,0.1,0.4,0.2c0,0.1-0.3,0.1-0.4,0.3
			c-0.1,0.3,0.2,0.4,0.3,0.6C13.3,22.9,13.4,23.1,13.1,23.3z M15.6,25.8c0.1-0.2,0.5-0.5,0.6-0.5c-0.1,0.6,0.1,1.3,0.1,1.3
			S15.7,26.2,15.6,25.8z M19.6,26.4c0.2,0,0.4,0.2,0.5,0.1c0.2-0.1,0-0.7-0.1-0.8c0.2,0,0.9,0,0.8,0.3c-0.1,0.6-0.5,0.9-1.5,1.3
			C19.5,27.1,19.5,26.7,19.6,26.4z M17.6,28.6c-0.1-0.1-0.4-0.4-0.3-0.8c0.3,0.2,0.8,0.3,0.8,0.3S17.9,28.5,17.6,28.6z"/>
	</g>
</g>
</svg>
