<?xml version="1.0" encoding="utf-8"?>
<!-- Generator: Adobe Illustrator 28.0.0, SVG Export Plug-In . SVG Version: 6.00 Build 0)  -->
<svg version="1.1" id="Layer_1" xmlns="http://www.w3.org/2000/svg" xmlns:xlink="http://www.w3.org/1999/xlink" x="0px" y="0px"
	 viewBox="0 0 512.3 114.9" style="enable-background:new 0 0 512.3 114.9;" xml:space="preserve">
<style type="text/css">
	.st0{fill:#ED1C24;}
</style>
<g>
	<path class="st0" d="M91.1,26.6l-26-26H27.2L0.6,27.1v26.7l4,4l-4,4v26.7l26,26h39L91.1,89V61.2l-3.5-3.5l3.5-3.5V26.6z
		 M46.1,106.5L14.7,75.1l3.6-3.6l8.3,8.3h39l8.4-8.4l3.6,3.6L46.1,106.5z M32,57.8l14.1-14.1l14.1,14.1L46.1,71.9L32,57.8z M74,44
		l-8.9-8.9H27.2l-8.9,8.9l-3.6-3.6L46.1,9l31.4,31.4L74,44z"/>
	<g>
		<path class="st0" d="M155.8,53.6c0,4.3-0.5,6.6-2.1,8.1c-2.1,2-4.1,2.5-8.9,2.5l-13.2,0c-0.3,0-0.4,0-0.6,0.2
			c-0.2,0.2-0.3,0.4-0.3,0.7v6.2h-8.2V43.9H145c4.6,0,6.9,0.1,8.5,1.8C155.3,47.7,155.8,49,155.8,53.6z M144.6,57.6
			c1,0,1.8,0,2.5-0.9c0.7-0.9,0.9-1.6,0.9-2.8c0-0.9,0.3-1.8-0.9-2.9c-1-0.9-1.7-0.7-2.6-0.7h-12.7c-0.3,0-0.5,0-0.6,0.2
			c-0.2,0.2-0.3,0.4-0.2,0.7v5.6c0,0.3,0,0.5,0.2,0.6c0.2,0.2,0.4,0.3,0.7,0.2H144.6z"/>
		<path class="st0" d="M164,69c-1.7-1.9-2.5-3.4-2.5-5.9V43.9h8.1v17.4c0,3.7,7.2,3.3,10,3.3c2.6,0,8.6,0.4,8.6-3.2V43.9h8.3v19.2
			c0,2.4-0.7,3.7-2.2,5.6c-2.3,2.9-10.6,2.4-14.7,2.4C175,71.1,166.4,71.7,164,69z"/>
		<path class="st0" d="M234.7,45.6c1.3,1.5,1.4,2.9,1.4,4.9c0,2-0.2,4-0.8,4.9c-1,1.5-2.8,1.6-2.8,2.1c0,0.5,1.9,0.3,2.8,1.3
			c1.4,1.5,1.7,2.8,1.7,4.7c0,2.6-0.1,4.6-2.1,6.3c-1.6,1.4-5.5,1.4-8.6,1.4h-23.9V43.9h23.5C229.3,43.9,233.1,43.9,234.7,45.6z
			 M228.6,52.5c0-1.4-0.8-2.6-2.5-2.6h-15.9v4.9h15.9C227.8,54.8,228.6,53.8,228.6,52.5z M229.5,62.6c0-1.7-0.9-2.6-3.4-2.6h-15.9
			v4.9h16C228.8,64.9,229.5,64.1,229.5,62.6z"/>
		<path class="st0" d="M270.5,64.8l0,6.4H242V43.9h8.3l0,20.9H270.5z"/>
		<path class="st0" d="M276.1,71.2V43.9h8.3v27.3H276.1z"/>
		<path class="st0" d="M324.3,60.9c0,0,0.6,5.5-1.7,7.8c-2,2-9,2.5-15.2,2.5c-5.9,0-13.6-0.3-15.2-2.5c-2.4-3.5-2.1-7.1-2.1-11.1
			c0-4.3,0-8.6,2.3-11.4c1.6-2,8.9-2.3,14.9-2.3c6.2,0,12.9,0.4,14.5,2.2c2.3,2.6,1.9,7.2,1.9,7.2l-7.6,0c0,0,0.3-1.2-0.8-2.4
			c-1.1-0.9-4.5-0.8-8-0.8c-3.7,0-7.3-0.1-8.4,1.2c-1.2,1.6-1.3,3.8-1.3,6c0,2.1-0.3,4.1,1.2,6c1,1.2,4.8,1.2,8.4,1.2
			c3.5,0,6.7,0.3,8.1-0.8c1.1-1.1,1-2.9,1-2.9H324.3z"/>
		<path class="st0" d="M378.4,45.6c1.3,1.5,1.4,2.9,1.4,4.9c0,2-0.2,4-0.8,4.9c-1,1.5-2.7,1.6-2.7,2.1c0,0.5,1.9,0.3,2.8,1.3
			c1.4,1.5,1.7,2.8,1.7,4.7c0,2.6-0.1,4.6-2.1,6.3c-1.6,1.4-5.5,1.4-8.6,1.4h-23.9V43.9h23.5C373.1,43.9,376.9,43.9,378.4,45.6z
			 M372.3,52.5c0-1.4-0.8-2.6-2.5-2.6H354v4.9h15.9C371.6,54.8,372.3,53.8,372.3,52.5z M373.3,62.6c0-1.7-0.9-2.6-3.4-2.6H354v4.9
			h16C372.5,64.9,373.3,64.1,373.3,62.6z"/>
		<path class="st0" d="M383.5,71.2l15-27.3h12.7l14.3,27.3h-9l-2.7-5.5h-18.5l-3,5.5H383.5z M398.5,60.1c0.1,0.3,0.3,0.4,0.6,0.4
			h11.1c0.2,0,0.4,0,0.6-0.2c0.2-0.2,0.2-0.5,0.1-0.8l-4.7-9.4c0-0.2-0.1-0.3-0.3-0.4c-0.1-0.1-0.3-0.1-0.5-0.1h-1
			c-0.2,0-0.4,0-0.5,0.1c-0.2,0.1-0.2,0.3-0.3,0.5l-4.9,9.2C398.6,59.5,398.4,59.8,398.5,60.1z"/>
		<path class="st0" d="M440.1,51.3c-0.5-0.7-0.6-0.7-1.4-0.7c-0.6,0-0.6,0.3-0.6,0.8v19.8h-7.8V43.8h14.2l13.6,19.7
			c0.4,0.6,0.9,0.9,1.5,0.9c0.4,0,0.5-0.2,0.5-1V43.9h7.8v27.3h-14.2L440.1,51.3z"/>
		<path class="st0" d="M482.7,61.2v10h-8.3V43.9h8.3v9.2c0,0.3,0,0.4,0.2,0.6c0.2,0.2,0.4,0.3,0.7,0.3h4.2l10.8-10.1h11.7
			l-15.6,13.2l17.1,14.1h-12l-12.6-10.8h-3.7c-0.3,0-0.4,0-0.6,0.1C482.8,60.7,482.7,60.9,482.7,61.2z"/>
		<rect x="168" y="50.4" class="st0" width="0" height="0"/>
	</g>
</g>
</svg>
